<svg version="1.1" xmlns="http://www.w3.org/2000/svg" xmlns:xlink="http://www.w3.org/1999/xlink" width="98.79191" height="71.07483" viewBox="0,0,98.79191,71.07483"><g transform="translate(-172.80785,-149.00678)"><g data-paper-data="{&quot;isPaintingLayer&quot;:true}" fill-rule="nonzero" stroke="none" stroke-linecap="butt" stroke-linejoin="miter" stroke-miterlimit="10" stroke-dasharray="" stroke-dashoffset="0" style="mix-blend-mode: normal"><path d="M268.083,183.402c0,14.527 -16.36258,4.43278 -31.81558,4.43278c-15.453,0 -24.13942,10.09922 -24.13942,-4.43278c0,-14.527 12.523,-21.275 27.977,-21.275c15.452,-0.001 27.978,6.749 27.978,21.275z" fill="#ec1c2c" stroke-width="1"/><g fill="#231f20" stroke-width="1"><path d="M271.59976,183.88852c0,16.156 -14.31076,2.77468 -31.49276,2.77468c-17.179,0 -30.72324,13.38132 -30.72324,-2.77468c0,-14.238 10.821,-20.648 25.149,-21.972c0,0 4.528,-0.58 9.136,-0.189c15.684,0.73 27.931,7.017 27.931,22.161zM266.47,183.55c0,-12.602 -10.007,-18.984 -22.949,-19.92c0,0 -8.207,0.115 -8.456,0.144c-12.145,1.341 -21.314,7.71 -21.314,19.774c0,13.686 11.798,4.82957 26.357,4.82957c14.558,0 26.356,8.85843 26.362,-4.82757z"/><path d="M249.06,170.065c-3.568,0.181 -6.986,0.271 -10.561,0.672c-2.387,0.268 -4.687,0.289 -6.455,-1.514c-0.384,-0.395 0.118,-1.076 0.598,-0.773c1.182,0.741 2.373,1.041 3.571,1.099c0.078,0.064 4.274,-0.49 6.19,-1.098c2.312,-0.63 4.626,-1.15 6.929,-0.389c1.101,0.364 0.888,1.942 -0.272,2.003z"/></g><path d="M221.555,183.261c0,3.431 1.85,6.212 -0.084,6.212c-1.934,0 -3.5,-2.781 -3.5,-6.212c0,-3.43 1.566,-6.211 3.5,-6.211c1.934,0 0.084,2.782 0.084,6.211z" fill="#ffffff" stroke-width="1"/><g stroke-width="1"><path d="M233.116,153.686c1.021,-0.61 2.039,-1.222 3.059,-1.833c0.734,1.128 1.472,2.229 2.064,3.482c2.162,4.564 1.686,9.385 1.624,14.212c-0.375,0.089 -0.977,0.153 -1.348,0.219c0.258,-6.148 -1.205,-11.784 -5.399,-16.08z" fill="#99661d"/><path d="M242.297,167.438c0,0 -0.23,1.876 -0.251,2.23c0,0 -3.771,1.124 -5.25,0.562l-0.046,-1.609c0.03,-3.215 -0.97,-6.668 -1.562,-7.749c-0.283,-0.516 -1.423,-3.466 -4.9,-6.557c-0.596,-0.527 -0.395,-1.515 0.242,-1.898c1.807,-1.084 3.609,-2.168 5.414,-3.252c0.58,-0.347 1.265,-0.088 1.658,0.435c5.528,7.358 4.864,17.077 4.695,17.838zM239.761,168.152c0.112,-4.442 0.49,-8.57 -1.522,-12.817c-0.592,-1.253 -1.33,-2.354 -2.064,-3.482c-1.02,0.611 -2.038,1.223 -3.059,1.833c3.962,4.058 5.58,8.969 5.53,14.683v1.152l1.109,-0.141z" fill="#231f20"/></g><path d="M172.80785,159.9067c0,-0.13807 0.11193,-0.25 0.25,-0.25c0.13807,0 0.25,0.11193 0.25,0.25c0,0.13807 -0.11193,0.25 -0.25,0.25c-0.13807,0 -0.25,-0.11193 -0.25,-0.25z" fill="#000000" stroke-width="0.5"/><path d="" fill="#231f20" stroke-width="1"/><path d="" fill="#231f20" stroke-width="1"/><g stroke-width="1"><path d="M266.09485,202.77636c0,12.46566 -12.06495,17.30525 -25.32522,17.30525c-13.26027,0 -22.68993,-4.83529 -22.68993,-17.30525c0,-12.46566 8.7702,-5.41328 22.03132,-5.41328c13.2594,-0.00086 25.98383,-7.05152 25.98383,5.41328z" fill="#ec1c2c"/><path d="M214.56531,203.10083c-0.47201,-12.50527 11.76033,-5.27184 26.49376,-5.82796c14.73086,-0.55603 26.38397,-8.69102 26.85599,3.81424c0.41598,11.02068 -8.67567,16.33246 -20.92314,17.82103c0,0 -3.86578,0.59549 -7.82853,0.44199c-9.77003,-0.04164 -18.07502,-2.40457 -22.06932,-8.17221c-0.63288,-0.91386 -1.15753,-1.91318 -1.56265,-3.00229c-0.56323,-1.51419 -0.89541,-3.20194 -0.9661,-5.07481zM218.97393,203.19682c0.36818,9.75436 9.13556,14.37034 20.26057,14.67596c0,0 7.03408,-0.35465 7.24675,-0.38515c10.37507,-1.43106 18.05133,-6.65765 17.69887,-15.99558c-0.39985,-10.59341 -10.2578,-3.35638 -22.74203,-2.88517c-12.48337,0.47119 -22.85887,-6.00367 -22.46416,4.58994z" fill="#231f20"/></g></g></g></svg>